<svg xmlns="http://www.w3.org/2000/svg" xmlns:xlink="http://www.w3.org/1999/xlink" width="1080" fill="currentColor" zoomAndPan="magnify" viewBox="0 0 810 809.999993" height="1080" preserveAspectRatio="xMidYMid meet" version="1.0">
    <path  d="M 404.914062 492.335938 C 400.277344 492.335938 396.492188 488.578125 396.492188 483.910156 L 396.492188 429.386719 C 396.492188 424.746094 400.277344 420.960938 404.914062 420.960938 C 409.550781 420.960938 413.300781 424.746094 413.300781 429.386719 L 413.300781 483.910156 C 413.300781 488.578125 409.550781 492.335938 404.914062 492.335938 " fill-opacity="1" fill-rule="nonzero" />
    <path  d="M 335.246094 509.753906 C 331.964844 509.753906 328.84375 507.828125 327.488281 504.609375 L 302.445312 445.226562 C 300.648438 440.964844 302.667969 436.011719 306.925781 434.210938 C 311.214844 432.414062 316.132812 434.433594 317.929688 438.691406 L 342.972656 498.078125 C 344.800781 502.367188 342.78125 507.292969 338.492188 509.089844 C 337.453125 509.5625 336.316406 509.753906 335.246094 509.753906 " fill-opacity="1" fill-rule="nonzero" />
    <path  d="M 479.5625 509.753906 C 478.617188 509.753906 477.640625 509.59375 476.695312 509.246094 C 472.308594 507.667969 470.070312 502.84375 471.648438 498.488281 L 491.613281 443.679688 C 493.1875 439.292969 498.015625 437.050781 502.367188 438.628906 C 506.75 440.238281 508.988281 445.066406 507.414062 449.421875 L 487.449219 504.230469 C 486.21875 507.636719 483 509.753906 479.5625 509.753906 " fill-opacity="1" fill-rule="nonzero" />
    <path  d="M 638.578125 505.144531 C 634.417969 505.144531 630.789062 502.054688 630.253906 497.792969 L 628.960938 487.632812 C 624.921875 467.878906 614.167969 449.988281 598.652344 437.117188 C 588.75 428.976562 578.972656 423.800781 569.605469 421.75 L 485.019531 397.199219 C 482.339844 396.410156 479.816406 395.242188 477.546875 393.699219 C 471.082031 389.34375 466.855469 382.402344 465.9375 374.640625 L 462.058594 341.351562 C 461.714844 338.414062 462.941406 335.542969 465.246094 333.746094 C 487.289062 316.644531 503.722656 290.707031 511.574219 260.730469 C 512.488281 257.289062 515.421875 254.796875 518.988281 254.480469 C 529.550781 253.535156 537.847656 240.0625 537.847656 223.78125 C 537.847656 208.570312 530.78125 195.792969 521.035156 193.332031 C 516.527344 192.226562 513.78125 187.652344 514.917969 183.140625 C 516.054688 178.625 520.625 175.914062 525.136719 177.015625 C 542.515625 181.402344 554.65625 200.621094 554.65625 223.78125 C 554.65625 246.4375 542.859375 265.179688 526.429688 270.101562 C 517.660156 299.792969 501.105469 325.730469 479.3125 344 L 482.65625 372.683594 C 482.96875 375.554688 484.546875 378.140625 486.945312 379.75 C 487.796875 380.320312 488.742188 380.761719 489.71875 381.042969 L 573.769531 405.46875 C 585.21875 407.960938 597.359375 414.300781 609.34375 424.148438 C 627.949219 439.511719 640.753906 461 645.484375 484.605469 C 645.550781 484.824219 645.582031 485.015625 645.582031 485.203125 L 646.9375 495.679688 C 647.503906 500.285156 644.257812 504.484375 639.652344 505.082031 C 639.304688 505.113281 638.925781 505.144531 638.578125 505.144531 " fill-opacity="1" fill-rule="nonzero" />
    <path  d="M 171.121094 505.144531 C 170.773438 505.144531 170.425781 505.113281 170.046875 505.082031 C 165.445312 504.484375 162.195312 500.285156 162.761719 495.679688 L 164.121094 485.203125 C 164.121094 485.015625 164.152344 484.824219 164.214844 484.636719 C 168.882812 461.035156 181.71875 439.578125 200.355469 424.179688 C 212.308594 414.300781 224.578125 407.929688 236.75 405.246094 L 319.980469 381.042969 C 320.957031 380.761719 321.90625 380.320312 322.757812 379.75 C 325.152344 378.140625 326.730469 375.554688 327.046875 372.683594 L 330.355469 344 C 308.5625 325.730469 292.039062 299.792969 283.207031 270.070312 C 266.808594 265.117188 255.074219 246.40625 255.074219 223.78125 C 255.074219 201.21875 266.808594 182.097656 283.585938 177.300781 C 288.0625 176.039062 292.699219 178.625 293.992188 183.074219 C 295.253906 187.554688 292.667969 192.195312 288.222656 193.488281 C 278.761719 196.203125 271.886719 208.917969 271.886719 223.78125 C 271.886719 240.03125 280.148438 253.535156 290.683594 254.480469 C 294.214844 254.796875 297.148438 257.289062 298.0625 260.730469 C 305.945312 290.675781 322.410156 316.613281 344.390625 333.746094 C 346.726562 335.542969 347.921875 338.414062 347.578125 341.351562 L 343.761719 374.609375 C 342.847656 382.371094 338.621094 389.34375 332.15625 393.699219 C 329.851562 395.242188 327.328125 396.410156 324.679688 397.199219 L 240.914062 421.527344 C 230.824219 423.769531 220.949219 428.976562 211.078125 437.148438 C 195.46875 450.019531 184.714844 467.945312 180.738281 487.632812 L 179.445312 497.792969 C 178.910156 502.054688 175.285156 505.144531 171.121094 505.144531 " fill-opacity="1" fill-rule="nonzero" />
    <path  d="M 285.917969 193.804688 C 281.535156 193.804688 277.847656 190.429688 277.53125 185.980469 C 277.371094 183.960938 274.28125 136.3125 293.425781 108.261719 C 296.042969 104.414062 301.277344 103.433594 305.125 106.054688 C 308.941406 108.671875 309.921875 113.910156 307.300781 117.726562 C 291.4375 141.015625 294.277344 184.371094 294.308594 184.8125 C 294.625 189.449219 291.125 193.457031 286.488281 193.773438 C 286.296875 193.804688 286.109375 193.804688 285.917969 193.804688 " fill-opacity="1" fill-rule="nonzero" />
    <path  d="M 523.085938 193.582031 C 522.960938 193.582031 522.804688 193.582031 522.675781 193.582031 C 518.039062 193.363281 514.476562 189.417969 514.699219 184.78125 C 514.699219 184.527344 515.800781 159.191406 507.445312 131.136719 C 506.085938 126.6875 508.640625 121.988281 513.089844 120.664062 C 517.566406 119.367188 522.234375 121.894531 523.558594 126.34375 C 532.769531 157.265625 531.539062 184.464844 531.476562 185.601562 C 531.253906 190.113281 527.535156 193.582031 523.085938 193.582031 " fill-opacity="1" fill-rule="nonzero" />
    <path  d="M 469.753906 122.554688 C 464.488281 122.554688 459.503906 122.050781 455.152344 121.453125 C 442.820312 119.84375 430.710938 116.96875 418.980469 114.195312 C 411.628906 112.425781 404.03125 110.628906 396.585938 109.207031 C 373.972656 104.855469 356.597656 104.917969 341.867188 109.460938 C 337.421875 110.816406 332.722656 108.324219 331.367188 103.875 C 329.976562 99.425781 332.46875 94.726562 336.917969 93.367188 C 354.390625 88.003906 374.351562 87.785156 399.773438 92.675781 C 407.5625 94.1875 415.351562 96.019531 422.859375 97.816406 C 434.683594 100.625 445.882812 103.277344 457.359375 104.789062 C 464.835938 105.769531 474.484375 106.589844 483.066406 103.96875 C 494.230469 100.5625 504.289062 90.8125 510 77.875 C 514.128906 68.472656 514.855469 47.898438 514.855469 33.226562 C 494.070312 39.882812 474.832031 40.296875 453.828125 34.648438 C 451.527344 34.015625 449.570312 32.40625 448.5 30.230469 C 447.425781 28.082031 447.332031 25.558594 448.246094 23.320312 C 448.5625 22.53125 448.78125 21.710938 448.878906 20.890625 C 427.054688 28.019531 400.65625 31.429688 389.933594 32.816406 L 387.851562 33.101562 C 350.066406 38.085938 309.195312 65.222656 308.785156 113.058594 C 308.722656 117.695312 304.96875 121.417969 300.363281 121.417969 C 300.332031 121.417969 300.332031 121.417969 300.300781 121.417969 C 295.632812 121.355469 291.910156 117.570312 291.976562 112.933594 C 292.480469 55.03125 340.890625 22.308594 385.644531 16.410156 L 387.789062 16.125 C 399.394531 14.640625 430.300781 10.632812 451.242188 2.144531 C 455.027344 0.601562 459.347656 1.988281 461.523438 5.429688 C 464.394531 10.003906 465.78125 15.082031 465.75 20.132812 C 483.949219 23.632812 500.570312 21.519531 519.902344 13.410156 C 522.457031 12.339844 525.421875 12.589844 527.753906 14.136719 C 530.089844 15.652344 531.507812 18.238281 531.570312 21.015625 C 531.949219 44.648438 531.507812 70.679688 525.390625 84.660156 C 517.628906 102.265625 504.007812 115.171875 487.953125 120.0625 C 481.835938 121.925781 475.621094 122.554688 469.753906 122.554688 " fill-opacity="1" fill-rule="nonzero" />
    <path  d="M 155.257812 792.472656 L 654.441406 792.472656 C 650.628906 775.8125 635.710938 763.382812 617.921875 763.382812 L 191.777344 763.382812 C 173.992188 763.382812 159.074219 775.8125 155.257812 792.472656 Z M 663.808594 809.292969 L 145.890625 809.292969 C 141.253906 809.292969 137.46875 805.539062 137.46875 800.867188 C 137.46875 770.921875 161.847656 746.5625 191.777344 746.5625 L 617.921875 746.5625 C 647.851562 746.5625 672.230469 770.921875 672.230469 800.867188 C 672.230469 805.539062 668.445312 809.292969 663.808594 809.292969 " fill-opacity="1" fill-rule="nonzero" />
    <path  d="M 175.566406 763.382812 C 171.941406 763.382812 168.597656 761.015625 167.492188 757.355469 L 112.773438 573.207031 C 109.179688 561.027344 111.449219 548.183594 119.050781 537.992188 C 126.652344 527.832031 138.289062 521.964844 151 521.964844 L 658.699219 521.964844 C 671.410156 521.964844 683.046875 527.832031 690.648438 537.992188 C 698.25 548.183594 700.519531 561.027344 696.925781 573.207031 L 642.207031 757.355469 C 640.882812 761.835938 636.214844 764.359375 631.734375 763.035156 C 627.289062 761.710938 624.765625 757.039062 626.089844 752.558594 L 680.777344 568.410156 C 682.890625 561.375 681.566406 553.960938 677.183594 548.058594 C 672.765625 542.15625 666.050781 538.78125 658.699219 538.78125 L 151 538.78125 C 143.652344 538.78125 136.933594 542.15625 132.519531 548.058594 C 128.132812 553.960938 126.808594 561.375 128.921875 568.410156 L 183.609375 752.589844 C 184.933594 757.039062 182.410156 761.710938 177.964844 763.035156 C 177.144531 763.253906 176.355469 763.382812 175.566406 763.382812 " fill-opacity="1" fill-rule="nonzero" />
    <path  d="M 404.882812 377.164062 C 394.695312 377.164062 384.539062 374.640625 375.265625 369.589844 L 335.214844 347.753906 C 331.144531 345.546875 329.632812 340.433594 331.871094 336.363281 C 334.078125 332.292969 339.1875 330.777344 343.257812 332.988281 L 383.308594 354.824219 C 396.839844 362.207031 412.988281 362.175781 426.484375 354.792969 L 466.382812 332.988281 C 470.480469 330.777344 475.558594 332.261719 477.796875 336.332031 C 480.003906 340.433594 478.523438 345.546875 474.453125 347.753906 L 434.558594 369.558594 C 425.253906 374.640625 415.070312 377.164062 404.882812 377.164062 " fill-opacity="1" fill-rule="nonzero" />
</svg>