<svg xmlns="http://www.w3.org/2000/svg" xmlns:xlink="http://www.w3.org/1999/xlink" width="1080" zoomAndPan="magnify" viewBox="0 0 810 809.999993" height="1080" fill="currentColor" preserveAspectRatio="xMidYMid meet" version="1.0">
    <path  d="M 798.472656 212.453125 L 746.222656 204.984375 C 737.972656 203.816406 735.636719 197.058594 735.113281 195.03125 C 734.589844 192.988281 733.390625 185.9375 740.054688 180.941406 L 782.289062 149.277344 C 785.148438 147.144531 787.03125 143.960938 787.539062 140.441406 C 788.039062 136.90625 787.125 133.335938 784.988281 130.488281 L 736.617188 66.007812 C 734.480469 63.148438 731.296875 61.265625 727.777344 60.757812 C 724.175781 60.246094 720.671875 61.171875 717.824219 63.308594 L 675.605469 94.96875 C 668.929688 99.953125 662.492188 96.863281 660.679688 95.777344 C 658.867188 94.703125 653.0625 90.5625 654.246094 82.328125 L 661.714844 30.074219 C 662.761719 22.726562 657.65625 15.917969 650.308594 14.871094 L 570.507812 3.492188 C 566.988281 2.980469 563.398438 3.910156 560.550781 6.042969 C 557.691406 8.179688 555.808594 11.363281 555.300781 14.882812 L 547.832031 67.136719 C 546.664062 75.386719 539.90625 77.722656 537.878906 78.246094 C 535.824219 78.785156 528.796875 79.964844 523.785156 73.304688 L 492.125 31.070312 C 489.988281 28.207031 486.804688 26.328125 483.285156 25.816406 C 479.792969 25.308594 476.179688 26.234375 473.332031 28.371094 L 432.953125 58.660156 C 414.457031 56.765625 395.972656 56.699219 378.011719 58.675781 C 258.890625 71.824219 164.242188 168.085938 152.972656 287.515625 C 152.609375 291.304688 152.488281 295.078125 152.289062 298.867188 L 148.246094 298.867188 C 141.890625 298.867188 136.398438 303.3125 135.09375 309.546875 L 125.824219 353.6875 L 88.695312 328.109375 C 83.378906 324.417969 76.152344 325.089844 71.582031 329.667969 L 31.285156 369.96875 C 26.703125 374.546875 26.03125 381.746094 29.726562 387.082031 L 55.304688 424.195312 L 11.148438 433.492188 C 4.929688 434.808594 0.484375 440.289062 0.484375 446.640625 L 0.484375 500.375 C 0.484375 506.726562 4.929688 512.207031 11.148438 513.523438 L 55.304688 522.804688 L 29.726562 559.921875 C 26.046875 565.253906 26.703125 572.46875 31.285156 577.035156 L 71.582031 617.332031 C 76.164062 621.914062 83.378906 622.597656 88.695312 618.890625 L 125.824219 593.300781 L 135.09375 637.457031 C 136.398438 643.6875 141.90625 648.132812 148.246094 648.132812 L 201.976562 648.132812 C 208.328125 648.132812 213.808594 643.6875 215.125 637.46875 L 224.410156 593.316406 L 261.523438 618.890625 C 266.84375 622.585938 274.058594 621.914062 278.636719 617.332031 L 299.550781 596.417969 L 299.550781 634.703125 C 299.550781 654.5 310.433594 671.640625 326.417969 680.964844 L 326.417969 755.597656 C 326.417969 785.230469 350.515625 809.328125 380.148438 809.328125 L 433.878906 809.328125 C 463.511719 809.328125 487.613281 785.230469 487.613281 755.597656 L 487.613281 680.964844 C 503.597656 671.640625 514.476562 654.5 514.476562 634.703125 L 514.476562 581.535156 C 514.476562 559.800781 526.097656 539.289062 545.546875 526.703125 C 556.65625 519.5 567.296875 511.359375 577.167969 502.523438 L 559.25 482.507812 C 550.410156 490.433594 540.886719 497.714844 530.945312 504.148438 C 503.8125 521.71875 487.613281 550.652344 487.613281 581.535156 L 487.613281 634.703125 C 487.613281 649.519531 475.5625 661.566406 460.746094 661.566406 L 353.285156 661.566406 C 338.46875 661.566406 326.417969 649.519531 326.417969 634.703125 L 326.417969 580.417969 C 326.417969 550.074219 310.488281 521.746094 283.808594 504.605469 C 211.488281 458.167969 171.589844 375.957031 179.703125 290.042969 C 189.792969 183.238281 274.433594 97.160156 380.957031 85.390625 C 388.597656 84.546875 396.335938 84.183594 404.125 84.128906 C 403.992188 84.640625 403.683594 85.070312 403.617188 85.59375 C 403.121094 89.125 404.03125 92.699219 406.167969 95.546875 L 437.828125 137.765625 C 442.828125 144.441406 439.722656 150.878906 438.648438 152.675781 C 437.5625 154.492188 433.355469 160.242188 425.191406 159.125 L 372.9375 151.65625 C 365.589844 150.648438 358.777344 155.714844 357.730469 163.0625 L 346.324219 242.839844 C 345.828125 246.371094 346.742188 249.945312 348.878906 252.792969 C 351.011719 255.652344 354.195312 257.535156 357.714844 258.042969 L 409.96875 265.511719 C 418.21875 266.683594 420.570312 273.4375 421.09375 275.46875 C 421.601562 277.496094 422.796875 284.5625 416.136719 289.558594 L 373.917969 321.21875 C 367.980469 325.664062 366.785156 334.089844 371.230469 340.011719 L 419.589844 404.488281 C 424.019531 410.425781 432.457031 411.609375 438.378906 407.175781 L 480.625 375.515625 C 487.277344 370.519531 493.695312 373.621094 495.511719 374.695312 C 497.324219 375.769531 503.140625 379.921875 501.957031 388.15625 L 494.488281 440.410156 C 493.441406 447.757812 498.546875 454.566406 505.894531 455.613281 L 585.671875 467.019531 C 586.304688 467.113281 586.949219 467.152344 587.578125 467.152344 C 590.46875 467.152344 593.300781 466.226562 595.640625 464.46875 C 598.5 462.332031 600.378906 459.148438 600.890625 455.628906 L 608.359375 403.375 C 609.527344 395.125 616.285156 392.789062 618.3125 392.265625 C 620.355469 391.726562 627.378906 390.546875 632.40625 397.207031 L 664.066406 439.429688 C 668.5 445.367188 676.921875 446.546875 682.859375 442.113281 L 747.335938 393.757812 C 753.273438 389.308594 754.480469 380.886719 750.023438 374.964844 L 718.359375 332.730469 C 713.378906 326.070312 716.480469 319.632812 717.554688 317.835938 C 718.617188 316.007812 722.726562 310.175781 731 311.386719 L 783.253906 318.855469 C 790.671875 319.917969 797.414062 314.796875 798.460938 307.449219 L 809.867188 227.671875 C 810.363281 224.140625 809.449219 220.566406 807.3125 217.71875 C 805.175781 214.84375 801.992188 212.964844 798.472656 212.453125 Z M 175.621094 419.828125 C 187.898438 446.304688 204.691406 470.605469 225.484375 491.640625 C 217.921875 512.597656 197.824219 527.238281 175.109375 527.238281 C 145.476562 527.238281 121.378906 503.140625 121.378906 473.507812 C 121.378906 443.875 145.476562 419.777344 175.109375 419.777344 C 175.285156 419.777344 175.445312 419.828125 175.621094 419.828125 Z M 433.878906 782.460938 L 380.148438 782.460938 C 365.332031 782.460938 353.285156 770.414062 353.285156 755.597656 L 353.285156 742.164062 L 460.746094 742.164062 L 460.746094 755.597656 C 460.746094 770.414062 448.695312 782.460938 433.878906 782.460938 Z M 460.746094 688.433594 L 460.746094 715.296875 L 353.285156 715.296875 L 353.285156 688.433594 Z M 296.367188 561.613281 L 267.554688 590.425781 L 239.65625 571.191406 C 232.242188 566.058594 222.808594 565 214.429688 568.355469 C 206.058594 571.703125 199.976562 578.96875 198.121094 587.765625 L 191.082031 621.269531 L 159.152344 621.269531 L 152.125 587.78125 C 150.257812 578.96875 144.160156 571.714844 135.804688 568.371094 C 127.4375 565.039062 118.019531 566.074219 110.578125 571.203125 L 82.679688 590.441406 L 58.203125 565.964844 L 77.425781 538.078125 C 82.558594 530.664062 83.621094 521.234375 80.289062 512.851562 C 76.941406 504.484375 69.675781 498.386719 60.863281 496.53125 L 27.375 489.492188 L 27.375 457.5625 L 60.851562 450.523438 C 69.675781 448.671875 76.941406 442.570312 80.289062 434.203125 C 83.621094 425.820312 82.558594 416.390625 77.441406 408.988281 L 58.203125 381.089844 L 82.679688 356.613281 L 110.59375 375.851562 C 118.007812 380.96875 127.4375 382.003906 135.792969 378.683594 C 144.160156 375.355469 150.257812 368.085938 152.125 359.261719 L 154.476562 348.070312 C 156.667969 363.640625 160.1875 378.886719 165.128906 393.621094 C 125.382812 398.539062 94.511719 432.457031 94.511719 473.507812 C 94.511719 517.957031 130.660156 554.105469 175.109375 554.105469 C 205.523438 554.105469 232.710938 536.535156 246.332031 510.449219 C 253.652344 516.386719 261.242188 522.054688 269.300781 527.226562 C 282.453125 535.675781 291.816406 547.886719 296.367188 561.613281 Z M 773.773438 290.335938 L 734.828125 284.777344 C 718.242188 282.398438 702.925781 289.855469 694.464844 304.132812 C 685.988281 318.425781 686.914062 335.566406 696.894531 348.835938 L 720.496094 380.324219 L 677.523438 412.550781 L 653.910156 381.089844 C 643.941406 367.792969 627.769531 362.054688 611.664062 366.234375 C 595.585938 370.355469 584.113281 383.132812 581.761719 399.558594 L 576.203125 438.5 L 523.019531 430.910156 L 528.582031 391.96875 C 530.933594 375.515625 523.503906 360.054688 509.210938 351.589844 C 494.933594 343.128906 477.792969 344.042969 464.519531 354.035156 L 433.035156 377.636719 L 400.808594 334.664062 L 432.269531 311.050781 C 445.566406 301.082031 451.261719 284.898438 447.125 268.804688 C 443 252.710938 430.226562 241.253906 413.796875 238.902344 L 374.855469 233.34375 L 382.445312 180.160156 L 421.386719 185.722656 C 437.898438 188.046875 453.304688 180.644531 461.765625 166.367188 C 470.230469 152.074219 469.304688 134.933594 459.324219 121.648438 L 435.722656 90.175781 L 478.691406 57.9375 L 502.308594 89.410156 C 512.273438 102.695312 528.433594 108.402344 544.554688 104.265625 C 560.632812 100.140625 572.105469 87.367188 574.457031 70.9375 L 580.015625 31.996094 L 633.195312 39.585938 L 627.636719 78.527344 C 625.285156 94.96875 632.714844 110.429688 646.992188 118.894531 C 661.273438 127.371094 678.425781 126.429688 691.710938 116.460938 L 723.183594 92.859375 L 755.421875 135.832031 L 723.949219 159.449219 C 710.664062 169.414062 704.96875 185.589844 709.09375 201.695312 C 713.214844 217.773438 725.992188 229.246094 742.417969 231.59375 L 781.359375 237.15625 Z M 773.773438 290.335938 " fill-opacity="1" fill-rule="nonzero" />
    <path d="M 578.09375 127.800781 C 518.84375 127.800781 470.632812 176.011719 470.632812 235.261719 C 470.632812 294.515625 518.84375 342.726562 578.09375 342.726562 C 637.347656 342.726562 685.558594 294.515625 685.558594 235.261719 C 685.558594 176.011719 637.347656 127.800781 578.09375 127.800781 Z M 578.09375 315.859375 C 533.644531 315.859375 497.5 279.710938 497.5 235.261719 C 497.5 190.8125 533.644531 154.664062 578.09375 154.664062 C 622.542969 154.664062 658.691406 190.8125 658.691406 235.261719 C 658.691406 279.710938 622.542969 315.859375 578.09375 315.859375 Z M 578.09375 315.859375 " fill-opacity="1" fill-rule="nonzero" />
    <path d="M 393.582031 594.402344 L 420.449219 594.402344 L 420.449219 634.703125 L 393.582031 634.703125 Z M 393.582031 594.402344 " fill-opacity="1" fill-rule="nonzero" />
    <path d="M 348.257812 462.480469 C 286.023438 438.085938 245.820312 379.15625 245.820312 312.3125 C 245.820312 256.648438 273.960938 205.671875 321.097656 175.917969 L 306.753906 153.203125 C 251.773438 187.898438 218.957031 247.378906 218.957031 312.3125 C 218.957031 390.292969 265.863281 459.054688 338.453125 487.476562 C 371.941406 500.613281 393.582031 532.019531 393.582031 567.539062 L 420.449219 567.539062 C 420.449219 520.886719 392.117188 479.644531 348.257812 462.480469 Z M 348.257812 462.480469 " fill-opacity="1" fill-rule="nonzero" />
    <path d="M 662.238281 500.375 L 756.269531 500.375 L 756.269531 527.238281 L 662.238281 527.238281 Z M 662.238281 500.375 " fill-opacity="1" fill-rule="nonzero" />
    <path d="M 640.210938 591.28125 L 657.40625 570.640625 L 738.007812 637.792969 L 720.8125 658.433594 Z M 640.210938 591.28125 " fill-opacity="1" fill-rule="nonzero" />
    <path d="M 581.640625 607.835938 L 608.507812 607.835938 L 608.507812 701.867188 L 581.640625 701.867188 Z M 581.640625 607.835938 " fill-opacity="1" fill-rule="nonzero" />
    <path d="M 14.195312 232.121094 L 121.65625 205.257812 L 128.167969 231.308594 L 20.707031 258.171875 Z M 14.195312 232.121094 " fill-opacity="1" fill-rule="nonzero" />
    <path d="M 36.523438 94.886719 L 52.128906 73.039062 L 146.15625 140.199219 L 130.550781 162.046875 Z M 36.523438 94.886719 " fill-opacity="1" fill-rule="nonzero" />
    <path d="M 151.605469 6.667969 L 177.632812 0.0117188 L 205.109375 107.472656 L 179.082031 114.125 Z M 151.605469 6.667969 " fill-opacity="1" fill-rule="nonzero" />
</svg>