<svg xmlns="http://www.w3.org/2000/svg" xmlns:xlink="http://www.w3.org/1999/xlink" width="1080" zoomAndPan="magnify" fill="currentColor" viewBox="0 0 810 809.999993" height="1080" preserveAspectRatio="xMidYMid meet" version="1.0">
    <defs>
        <clipPath id="id1">
            <path d="M 1 92.78125 L 809 92.78125 L 809 717.53125 L 1 717.53125 Z M 1 92.78125 " clip-rule="nonzero" />
        </clipPath>
    </defs>
    <g clip-path="url(#id1)">
        <path d="M 805.027344 331.742188 C 802.609375 328.675781 798.898438 326.902344 794.867188 326.902344 L 746.488281 326.902344 L 755.839844 291.082031 C 756.808594 287.210938 756 283.015625 753.421875 279.949219 C 750.839844 276.722656 746.972656 274.785156 742.777344 274.945312 L 729.714844 274.945312 L 729.714844 183.945312 C 729.714844 176.683594 723.910156 170.875 716.652344 170.875 L 287.675781 170.875 L 287.675781 131.828125 C 287.675781 110.207031 270.257812 92.78125 248.648438 92.78125 L 40.613281 92.78125 C 19.003906 92.78125 1.585938 110.207031 1.585938 131.828125 L 1.585938 704.140625 C 1.585938 704.625 1.585938 705.269531 1.585938 705.753906 C 1.425781 706.558594 1.425781 707.207031 1.585938 708.011719 C 1.90625 708.980469 2.390625 710.109375 3.035156 711.078125 L 3.683594 712.367188 C 4.488281 713.335938 5.617188 714.144531 6.746094 714.789062 L 8.035156 715.757812 C 10.132812 716.726562 12.390625 717.371094 14.648438 717.371094 L 716.652344 717.371094 C 722.941406 717.53125 728.261719 713.175781 729.714844 707.042969 L 807.769531 342.875 C 808.574219 338.839844 807.609375 334.808594 805.027344 331.742188 Z M 726.167969 300.925781 L 719.714844 326.902344 L 148.5 326.902344 L 154.953125 300.925781 Z M 144.792969 274.945312 C 138.664062 274.785156 133.179688 278.820312 131.730469 284.789062 L 121.570312 326.902344 L 92.863281 326.902344 C 86.574219 326.742188 81.253906 331.097656 79.800781 337.226562 L 79.800781 248.96875 L 651.820312 248.96875 L 651.820312 274.945312 Z M 27.871094 131.828125 C 27.871094 124.566406 33.679688 118.757812 40.933594 118.757812 L 248.972656 118.757812 C 256.230469 118.757812 262.035156 124.566406 262.035156 131.828125 L 262.035156 183.945312 C 262.035156 191.207031 267.839844 197.015625 275.097656 197.015625 L 704.074219 197.015625 L 704.074219 275.109375 L 678.109375 275.109375 L 678.109375 236.0625 C 678.109375 228.800781 672.304688 222.992188 665.046875 222.992188 L 66.898438 222.992188 C 59.640625 222.992188 53.835938 228.800781 53.835938 236.0625 L 53.835938 457.113281 C 53.835938 457.113281 53.835938 458.078125 53.835938 458.726562 L 27.871094 581.511719 C 27.871094 581.511719 27.871094 131.828125 27.871094 131.828125 Z M 706.332031 691.070312 L 30.9375 691.070312 L 103.347656 353.039062 L 779.386719 353.039062 Z M 706.332031 691.070312 " fill-opacity="1" fill-rule="nonzero" />
    </g>
    <path d="M 118.828125 170.875 L 222.847656 170.875 C 230.105469 170.875 235.910156 165.066406 235.910156 157.804688 C 235.910156 150.546875 230.105469 144.738281 222.847656 144.738281 L 118.828125 144.738281 C 111.570312 144.738281 105.765625 150.546875 105.765625 157.804688 C 105.765625 165.066406 111.730469 170.875 118.828125 170.875 Z M 118.828125 170.875 " fill-opacity="1" fill-rule="nonzero" />
    <path d="M 79.960938 157.804688 C 79.960938 158.664062 79.878906 159.515625 79.710938 160.355469 C 79.542969 161.199219 79.296875 162.015625 78.96875 162.808594 C 78.640625 163.601562 78.238281 164.355469 77.761719 165.066406 C 77.285156 165.78125 76.742188 166.441406 76.136719 167.046875 C 75.53125 167.65625 74.871094 168.195312 74.15625 168.671875 C 73.445312 169.148438 72.691406 169.550781 71.898438 169.878906 C 71.105469 170.210938 70.289062 170.457031 69.449219 170.625 C 68.605469 170.792969 67.757812 170.875 66.898438 170.875 C 66.042969 170.875 65.191406 170.792969 64.351562 170.625 C 63.511719 170.457031 62.691406 170.210938 61.902344 169.878906 C 61.109375 169.550781 60.355469 169.148438 59.640625 168.671875 C 58.929688 168.195312 58.269531 167.65625 57.664062 167.046875 C 57.054688 166.441406 56.515625 165.78125 56.039062 165.066406 C 55.5625 164.355469 55.160156 163.601562 54.832031 162.808594 C 54.503906 162.015625 54.253906 161.199219 54.085938 160.355469 C 53.921875 159.515625 53.835938 158.664062 53.835938 157.804688 C 53.835938 156.949219 53.921875 156.097656 54.085938 155.257812 C 54.253906 154.414062 54.503906 153.597656 54.832031 152.804688 C 55.160156 152.011719 55.5625 151.257812 56.039062 150.546875 C 56.515625 149.832031 57.054688 149.171875 57.664062 148.566406 C 58.269531 147.957031 58.929688 147.417969 59.640625 146.9375 C 60.355469 146.460938 61.109375 146.058594 61.902344 145.730469 C 62.691406 145.402344 63.511719 145.15625 64.351562 144.988281 C 65.191406 144.820312 66.042969 144.738281 66.898438 144.738281 C 67.757812 144.738281 68.605469 144.820312 69.449219 144.988281 C 70.289062 145.15625 71.105469 145.402344 71.898438 145.730469 C 72.691406 146.058594 73.445312 146.460938 74.15625 146.9375 C 74.871094 147.417969 75.53125 147.957031 76.136719 148.566406 C 76.742188 149.171875 77.285156 149.832031 77.761719 150.546875 C 78.238281 151.257812 78.640625 152.011719 78.96875 152.804688 C 79.296875 153.597656 79.542969 154.414062 79.710938 155.257812 C 79.878906 156.097656 79.960938 156.949219 79.960938 157.804688 Z M 79.960938 157.804688 " fill-opacity="1" fill-rule="nonzero" />
</svg>